HIERARCHY
ROOT hip
{
	OFFSET 0.000000 0.000000 0.000000 
	CHANNELS 6 Xposition Yposition Zposition Xrotation Zrotation Yrotation
	JOINT abdomen
	{
		OFFSET 0.000000 3.402643 0.000000 
		CHANNELS 3 Xrotation Zrotation Yrotation
		JOINT chest
		{
			OFFSET 0.000000 8.438565 -0.680529 
			CHANNELS 3 Xrotation Zrotation Yrotation
			JOINT neck
			{
				OFFSET 0.000000 10.207942 -0.272212 
				CHANNELS 3 Xrotation Zrotation Yrotation
				JOINT head
				{
					OFFSET 0.000000 3.130431 0.000000 
					CHANNELS 3 Xrotation Zrotation Yrotation
					End Site
					{
						OFFSET 0.000000 3.130435 0.000000 
					}
				}
			}
			JOINT lCollar
			{
				OFFSET 3.470700 6.669187 -0.816635 
				CHANNELS 3 Yrotation Zrotation Xrotation
				JOINT lShldr
				{
					OFFSET 3.198488 0.000000 0.000000 
					CHANNELS 3 Zrotation Yrotation Xrotation
					JOINT lForeArm
					{
						OFFSET 10.139888 0.000000 0.000000 
						CHANNELS 3 Yrotation Zrotation Xrotation
						JOINT lHand
						{
							OFFSET 8.370511 0.000000 0.000000 
							CHANNELS 3 Zrotation Yrotation Xrotation
							End Site
							{
								OFFSET 4.083176 0.000000 0.000000 
							}
						}
					}
				}
			}
			JOINT rCollar
			{
				OFFSET -3.470700 6.669187 -0.816635 
				CHANNELS 3 Yrotation Zrotation Xrotation
				JOINT rShldr
				{
					OFFSET -3.198488 0.000000 0.000000 
					CHANNELS 3 Zrotation Yrotation Xrotation
					JOINT rForeArm
					{
						OFFSET -10.139888 0.000000 0.000000 
						CHANNELS 3 Yrotation Zrotation Xrotation
						JOINT rHand
						{
							OFFSET -8.370511 0.000000 0.000000 
							CHANNELS 3 Zrotation Yrotation Xrotation
							End Site
							{
								OFFSET -4.083176 0.000000 0.000000 
							}
						}
					}
				}
			}
		}
	}
	JOINT lThigh
	{
		OFFSET 5.308129 -1.633274 1.361059 
		CHANNELS 3 Xrotation Zrotation Yrotation
		JOINT lShin
		{
			OFFSET -2.041588 -20.007561 0.000000 
			CHANNELS 3 Xrotation Zrotation Yrotation
			JOINT lFoot
			{
				OFFSET 0.000000 -19.190928 -1.224953 
				CHANNELS 3 Xrotation Yrotation Zrotation
				End Site
				{
					OFFSET 0.000000 -2.449906 4.627600 
				}
			}
		}
	}
	JOINT rThigh
	{
		OFFSET -5.308129 -1.633274 1.361059 
		CHANNELS 3 Xrotation Zrotation Yrotation
		JOINT rShin
		{
			OFFSET 2.041588 -20.007561 0.000000 
			CHANNELS 3 Xrotation Zrotation Yrotation
			JOINT rFoot
			{
				OFFSET 0.000000 -19.190928 -1.224953 
				CHANNELS 3 Xrotation Yrotation Zrotation
				End Site
				{
					OFFSET 0.000000 -2.449906 4.627600 
				}
			}
		}
	}
}
MOTION
Frames: 20
Frame Time: 0.033333
0.459140 49.531101 2.414149 -2.583476 0.996084 0.254038 0.000000 0.000000 0.000000 4.474877 -1.219401 2.646924 9.833471 -1.772768 4.113284 -2.549912 -0.400244 1.552765 -1.761376 -5.496649 4.510028 -41.957241 29.971519 3.983657 -47.828651 -1.073837 28.377272 9.119707 -2.773908 -3.891051 5.588607 9.626717 4.527476 32.693951 -32.260372 7.108243 39.976921 1.994129 36.988697 1.647959 10.295982 -3.108790 9.100483 8.398277 6.927872 9.058884 -5.087395 -3.081193 -14.597810 0.522412 -4.419766 -7.450742 -17.370201 -10.082956 34.449200 3.759560 7.168047 -7.818720 -0.550261 8.216453 
0.128334 49.489002 2.717663 -2.719531 0.956916 0.888874 0.000000 0.000000 0.000000 4.649758 -0.878096 2.461097 9.999535 -1.635671 4.454931 -2.795369 -0.868563 2.090048 -2.113630 -5.706758 4.647752 -48.445511 30.483343 3.399454 -49.397594 -1.057632 30.290718 7.442673 -3.522671 -3.849874 5.574720 11.502262 4.604372 33.122696 -31.545792 9.283554 42.024715 2.063667 38.536728 2.480587 11.074857 -2.976393 9.797335 8.950455 7.285988 8.535871 -4.957964 -3.957115 -14.597043 0.600654 -4.882958 -7.859302 -17.872597 -9.859056 32.217846 3.495786 6.260202 -6.805378 -0.552578 9.473479 
-0.302164 49.372784 3.053957 -2.719790 0.927415 1.504183 0.000000 0.000000 0.000000 4.752388 -0.526842 2.500074 9.961576 -1.265033 4.825196 -3.172547 -1.307338 2.510226 -2.183488 -5.353909 4.733096 -55.209896 30.552177 2.313787 -50.865261 -1.042509 31.479010 7.527307 -2.829964 -3.825634 5.711600 13.197068 4.621822 33.158859 -30.692856 11.068625 43.926884 2.125320 39.070942 3.187280 10.399781 -2.916981 9.890299 9.676934 7.637834 9.162832 -4.841847 -4.896987 -15.265449 0.685775 -5.438745 -7.499654 -18.229870 -9.272849 27.208271 3.144188 6.259643 -6.208726 -0.558801 10.669141 
-0.863929 49.192818 3.420552 -2.709524 1.024430 2.480945 0.000000 0.000000 0.000000 4.828693 -0.117068 2.587885 9.931548 -0.982397 5.117940 -3.602430 -1.785001 2.784285 -2.516356 -5.296174 4.790154 -61.026428 30.582682 0.714713 -52.214939 -1.154672 30.213440 5.868450 -1.844067 -3.681814 5.873500 14.345139 4.631091 33.152443 -30.033922 12.031848 45.746563 2.041657 39.272968 4.603625 10.016951 -2.778482 9.778264 10.609903 8.059698 10.289231 -4.755672 -6.490405 -16.274714 0.821952 -6.050107 -6.601245 -18.611084 -8.632144 20.594252 2.958858 8.314813 -5.468118 -0.534832 11.389744 
-1.565124 48.990875 3.800185 -2.642175 1.168972 4.034155 0.000000 0.000000 0.000000 4.963707 0.302475 2.373117 9.768827 -0.914054 5.293540 -4.083690 -1.726195 2.970049 -2.873029 -5.587562 4.907812 -65.257187 30.435562 0.006574 -53.585983 -1.138911 30.276247 6.065696 -1.232584 -3.675003 5.915778 15.447026 4.664332 32.716263 -29.064423 12.733231 47.172153 2.071539 38.969090 4.913603 9.564458 -2.768676 9.577044 11.833495 8.530706 11.208246 -4.629076 -8.987595 -17.097961 0.981857 -6.647350 -5.223452 -18.955883 -8.122691 13.428642 2.861469 12.825634 -4.495468 -0.491491 11.979012 
-2.388978 48.839272 4.230586 -2.842381 1.659650 6.360117 0.000000 0.000000 0.000000 5.372032 0.585580 2.002148 9.838209 -0.826782 5.107875 -4.659280 -1.999012 3.107324 -3.293859 -5.765115 5.269281 -67.806404 29.709093 0.787742 -54.535217 -1.237579 30.731148 6.558149 -0.964245 -3.688011 5.095616 15.299612 5.080669 33.307487 -27.071815 13.284596 47.833035 2.353578 37.857647 4.490823 8.525117 -2.861086 10.057831 12.743999 8.872359 10.551845 -4.286977 -10.996904 -16.898977 1.165679 -7.780895 -3.457168 -19.713089 -8.050395 7.979450 3.172216 20.256523 -3.712318 -0.435142 13.537069 
-3.437955 48.733879 4.635337 -2.769887 2.023150 9.420208 0.000000 0.000000 0.000000 5.721208 0.917546 1.738528 9.857501 -0.661813 4.717045 -5.371671 -2.116388 2.921895 -3.933778 -5.535031 5.586181 -68.477448 28.371342 2.852714 -55.215626 -1.334103 31.349728 6.740840 -0.913587 -3.686572 4.495585 15.536202 5.422795 33.980049 -25.572872 13.207086 48.412849 2.462548 36.575596 3.585216 7.294870 -3.019200 10.972507 13.981689 9.501805 7.920376 -3.906151 -13.698913 -15.623693 1.250611 -9.343019 -4.795190 -20.174242 -7.374433 10.014109 3.104524 25.208336 -5.484974 -0.608489 12.909400 
-4.699868 48.702782 5.026281 -2.798492 2.476377 12.766269 0.000000 0.000000 0.000000 6.303517 1.200691 1.621556 10.041793 -0.613505 4.297047 -5.783580 -2.253644 2.540937 -4.406854 -5.441083 6.118207 -67.635849 26.365269 5.111865 -55.587486 -1.369923 31.615395 6.987722 -1.102864 -3.705429 4.782097 17.085375 5.847032 33.459568 -25.049046 13.094110 49.354687 2.470042 34.975750 2.212721 6.045833 -3.188147 12.702103 15.241999 10.523199 3.246133 -3.718100 -16.309076 -13.091393 1.320671 -11.446357 -6.015467 -19.880520 -6.940674 14.661153 2.911866 23.979076 -8.040780 -0.778534 11.161396 
-6.181157 48.783127 5.371612 -2.410326 2.646031 16.101988 0.000000 0.000000 0.000000 6.748838 1.581253 1.797807 10.130486 -0.633148 4.091978 -6.600183 -2.576328 2.140460 -4.631035 -5.422022 6.506307 -65.806656 23.939796 6.984756 -55.837994 -1.284603 31.509226 7.874229 -0.876523 -3.728555 4.980076 17.535604 6.193842 35.061092 -23.473696 11.713050 49.310871 2.666185 34.584156 0.639187 5.085401 -3.338091 12.300669 17.037331 11.462353 1.295757 -3.650410 -19.146093 -11.647050 1.316727 -13.502437 -7.576959 -18.462862 -6.661695 19.380806 3.298287 19.253267 -9.796657 -0.756788 8.789099 
-7.764774 49.056599 5.585451 -1.391238 2.480664 19.824236 0.000000 0.000000 0.000000 6.924171 1.952236 1.729841 9.953259 -0.399465 3.896526 -7.056767 -2.664690 1.808319 -4.962053 -5.865218 6.634007 -63.688011 21.448589 7.850223 -56.020447 -1.018779 31.252457 9.714052 0.054608 -3.735638 4.781357 18.479427 6.329209 34.810028 -20.887163 12.173161 49.000225 3.187009 32.437511 -0.632815 4.031928 -3.443783 9.604345 18.646755 11.574578 1.184314 -3.549670 -19.384350 -8.656613 1.146840 -15.507593 -8.240523 -16.274591 -6.206814 20.200739 3.349662 13.338183 -9.903736 -0.634396 7.425738 
-9.345688 49.343914 5.764633 0.049860 2.473792 23.881439 0.000000 0.000000 0.000000 6.881467 1.825013 2.042157 9.584253 0.555633 3.447482 -7.471816 -3.806759 1.781201 -5.267713 -5.481630 6.568332 -62.214382 18.480583 9.038218 -56.295391 -0.900726 29.749821 12.104690 1.371138 -3.680849 5.346465 21.773169 6.149430 31.221340 -20.045465 13.541990 49.986835 3.742755 27.609348 -0.986687 2.083021 -3.471466 6.140227 19.038904 10.875745 1.068531 -3.676891 -14.611274 -2.387410 0.350210 -17.172112 -8.846869 -14.841694 -6.148169 19.973938 3.554222 8.727129 -9.645105 -0.523998 6.233116 
-10.727088 49.649441 5.908465 1.356551 3.230978 28.956678 0.000000 0.000000 0.000000 7.022389 1.552220 1.475391 9.464615 0.605096 2.011916 -7.948367 -4.247157 1.174442 -6.145738 -5.889845 6.668350 -60.640476 15.725125 10.608695 -56.886806 -0.846077 27.913530 13.881429 2.177731 -3.625408 4.874620 22.602695 6.294457 29.910877 -18.361057 14.080271 50.417053 3.994523 24.899586 -1.225374 1.491023 -3.488303 3.113758 17.106092 9.516418 0.621893 -3.883470 -2.961511 3.369261 -0.504591 -16.448318 -8.406308 -15.033816 -7.305793 19.311447 4.520591 4.779852 -9.356012 -0.412377 4.858833 
-12.087180 49.924217 6.041188 2.045614 3.147768 33.416676 0.000000 0.000000 0.000000 7.213366 2.001438 1.299741 9.509024 0.829907 1.162270 -8.725847 -4.462672 0.567728 -6.500463 -5.906395 6.858389 -59.487846 12.583879 12.480007 -57.392822 -0.753128 27.193180 13.940776 2.900496 -3.553877 4.744982 23.326458 6.415716 28.601076 -16.819561 14.734560 51.029694 3.946556 23.531744 -1.666591 1.180197 -3.501603 1.034971 15.379892 8.945191 0.846875 -4.198894 8.112548 6.573712 -0.603675 -11.193966 -7.605099 -13.773216 -7.485133 17.411543 4.726582 0.250106 -8.415935 -0.347017 4.007021 
-13.392524 50.123344 6.224291 2.302148 3.362360 36.851379 0.000000 0.000000 0.000000 7.651700 2.352651 1.554231 9.378772 0.214811 1.005889 -8.581926 -3.466655 -0.518993 -6.287106 -6.554999 7.229561 -57.888798 9.425768 14.710237 -58.415379 -0.522642 27.146770 12.951007 3.219827 -3.514523 5.029286 22.171371 6.796957 29.416258 -14.983250 14.836972 51.561745 3.659471 23.131653 -3.748107 0.323866 -3.583319 0.867550 13.480420 9.113789 1.296930 -5.360733 14.121029 6.396378 -0.292431 -5.921679 -6.942726 -12.391056 -7.325482 15.991647 4.604597 -4.007308 -7.613759 -0.245546 3.155693 
-14.509337 50.255085 6.443316 2.557124 4.088838 40.260212 0.000000 0.000000 0.000000 7.924423 2.283995 1.827834 9.421309 -0.165997 0.869137 -8.345632 -3.134142 -1.144606 -6.067192 -5.842309 7.506175 -57.888504 6.418283 17.482368 -58.968151 -0.218027 27.898563 11.545833 2.577943 -3.567739 5.209012 21.239981 7.080515 30.281340 -14.134120 14.473230 52.455910 3.115797 22.720650 -4.171471 -0.574745 -3.571142 2.741086 11.085623 9.353616 1.706437 -6.858212 15.769517 4.832378 -0.252087 -6.425438 -6.227455 -11.759415 -7.464424 15.360532 4.560436 -7.755154 -7.308277 -0.204200 2.358417 
-15.573777 50.352150 6.679843 2.732062 5.189019 44.813099 0.000000 0.000000 0.000000 8.094827 1.835541 1.192046 10.029297 -0.087891 -0.000015 -8.788814 -3.378211 -1.164693 -6.912190 -6.140100 7.642032 -57.011288 4.893217 19.982517 -60.217972 0.375606 28.876707 10.765678 1.795871 -3.624035 4.603264 21.497066 7.288647 30.360109 -13.736146 13.881223 53.185226 2.678044 21.651922 -4.761376 -0.995063 -3.572154 3.964418 8.603412 9.478822 5.649837 -8.463601 14.139173 2.186605 -0.104263 -7.470855 -5.135733 -11.480001 -7.930592 15.087713 4.453128 -12.213699 -7.266039 -0.169858 1.892137 
-16.682499 50.374378 6.846454 2.896113 4.795454 48.438953 0.000000 0.000000 0.000000 7.704707 1.972444 0.840354 9.638273 0.234375 -0.097655 -8.867210 -3.300262 -1.017314 -7.309738 -5.325992 7.344178 -57.396183 3.630928 21.633356 -61.337891 1.117272 29.874554 10.356457 1.168695 -3.667864 4.500448 21.868071 6.883909 31.087612 -13.042866 12.548379 53.879887 2.364389 21.115112 -5.515549 -1.133493 -3.589145 0.868583 7.957264 10.456193 18.149677 -9.903433 11.817212 -4.046655 0.251359 -6.414842 -5.319295 -9.904535 -7.379821 14.206060 4.070443 -16.352596 -6.613736 -0.099921 1.364909 
-17.740355 50.343788 7.010122 3.024709 4.716280 52.872913 0.000000 0.000000 0.000000 7.419104 2.050769 0.195537 9.078535 0.273415 -0.732414 -8.711089 -3.905947 -0.714561 -8.338870 -5.345434 7.112432 -57.350960 2.669273 22.884680 -62.625069 1.929351 30.137001 10.005246 0.850262 -3.687645 3.908032 22.343430 6.640652 31.702648 -12.961309 10.793518 54.952469 1.906984 20.562834 -5.697563 -1.350324 -3.574587 1.530594 6.633215 11.246349 23.881010 -10.754067 11.149180 -6.335070 0.335685 -5.750150 -5.612880 -8.871655 -7.267318 14.114460 3.901151 -20.660032 -6.330333 -0.072737 0.906524 
-18.762753 50.304115 7.152817 2.811182 4.591139 57.267433 0.000000 0.000000 0.000000 7.015678 2.431633 -0.136596 9.100031 0.078110 -1.123046 -8.834317 -3.915523 -0.910751 -8.212327 -5.980611 6.753324 -56.434734 1.297154 25.248724 -63.347198 2.433310 29.038580 9.238774 0.747773 -3.677586 3.728201 22.489305 6.243588 32.515759 -13.999041 10.363358 55.776711 1.565429 19.055071 -6.323864 -1.344006 -3.594195 4.196158 5.709713 12.135204 26.205261 -11.272561 11.820033 -7.058290 0.391509 -6.036295 -5.534057 -7.865256 -7.426027 13.518975 4.134311 -24.504128 -5.829952 -0.038990 0.163955 
-19.814753 50.219498 7.304461 2.507258 4.543658 61.492092 0.000000 0.000000 0.000000 6.798989 2.431578 -0.410201 8.679905 0.068337 -1.455077 -8.249635 -3.632126 -1.115994 -8.635843 -6.126555 6.552744 -56.971970 0.645524 25.262684 -63.912212 2.759972 29.362228 8.737878 0.624035 -3.668513 3.488261 22.213408 6.064805 33.675575 -14.315344 10.335036 55.864559 1.685504 17.134819 -7.375903 -1.110327 -3.617729 8.038605 5.026028 12.951224 25.950571 -11.516106 14.388232 -6.867462 0.500263 -7.800354 -5.741217 -6.971116 -7.558228 13.365459 4.399905 -28.020308 -5.493981 0.008193 -0.549615 
